<svg xmlns="http://www.w3.org/2000/svg" xmlns:xlink="http://www.w3.org/1999/xlink" width="1920" height="373.51" viewBox="0 0 1920 373.51">
  <defs>
    <clipPath id="clip-path">
      <rect id="Rectángulo_6689" data-name="Rectángulo 6689" width="1920" height="373.51" transform="translate(3.77 1.14)" fill="none"/>
    </clipPath>
  </defs>
  <g id="Grupo_28977" data-name="Grupo 28977" transform="translate(-3.77 -1.14)">
    <g id="Grupo_47079" data-name="Grupo 47079" transform="translate(0 0)">
      <g id="Grupo_47078" data-name="Grupo 47078" clip-path="url(#clip-path)">
        <path id="Trazado_63736" data-name="Trazado 63736" d="M56.048,1471.584s-319.393-229.366-173.847-528.7,408.987,157.54,592.616-264.957S699.58-68,1188.423,65.412s288.459,483.551,544.3,518.717,457.993,161.966,340.747,436.152,173.847,454.242,173.847,454.242Z" fill="#97c7fa"/>
        <path id="Trazado_63737" data-name="Trazado 63737" d="M9.671,381.247S-262.581,185.735-138.517-69.418,210.106,64.87,366.632-295.269,558.221-931.106,974.914-817.38,1220.8-405.2,1438.881-375.223,1829.276-237.163,1729.336-3.446s148.188,387.2,148.188,387.2Z" transform="translate(174.684 228.471)" fill="#ef5350" opacity="0.7"/>
        <path id="Trazado_63738" data-name="Trazado 63738" d="M83.141,1072S-236.251,842.631-90.705,543.3s408.987,157.54,592.616-264.957,224.763-745.933,713.606-612.516,288.459,483.551,544.3,518.717,457.992,161.966,340.747,436.151,173.847,454.243,173.847,454.243Z" fill="#ef5350" opacity="0.7"/>
        <path id="Trazado_63739" data-name="Trazado 63739" d="M-6.581,524.164S-325.973,294.8-180.427-4.534,228.56,153.006,412.189-269.491,636.952-1015.424,1125.8-882.007s288.459,483.551,544.3,518.717,457.992,161.966,340.747,436.151S2184.693,527.1,2184.693,527.1Z" fill="#01579b" opacity="0.7"/>
        <path id="Trazado_63740" data-name="Trazado 63740" d="M1325.464,516.569h-121.7c5.861-4.325,26.9-19.41,45.948-27.556,7.9-3.374,15.449-5.557,21.441-5.288C1290.156,484.578,1316.793,508.347,1325.464,516.569Z" fill="#fc801c"/>
        <path id="Trazado_63741" data-name="Trazado 63741" d="M1286.778,516.569h-121.7c8.288-6.118,46.936-33.759,67.388-32.844,5.336.241,11.273,2.288,17.246,5.288C1265.011,496.7,1280.539,510.653,1286.778,516.569Z" fill="#fb9d39"/>
        <path id="Trazado_63742" data-name="Trazado 63742" d="M1919.742,518.229H1107.581a.8.8,0,0,1-.8-.8h0a.8.8,0,0,1,.8-.8h812.161a.8.8,0,0,1,.8.8h0A.8.8,0,0,1,1919.742,518.229Z" fill="#1e2e50"/>
        <path id="Trazado_63743" data-name="Trazado 63743" d="M1253.633,446.5a1.025,1.025,0,0,0-1.224.768l-9.277,40.518c-2.506.074-5.054,2.787-5.919,6.567l-.884,3.86a5.433,5.433,0,0,0-.121.65l10.3,2.359a2.7,2.7,0,0,0,.2-.632l.884-3.86c.863-3.769-.242-7.312-2.473-8.483l9.279-40.523A1.025,1.025,0,0,0,1253.633,446.5Z" fill="#0d458d"/>
        <path id="Trazado_63744" data-name="Trazado 63744" d="M1226.671,498.8s21.4-5.542,28.231-1.031-3.481,9.281-3.481,9.281Z" fill="#fb9d39"/>
        <g id="Grupo_47073" data-name="Grupo 47073" opacity="0.5">
          <path id="Trazado_63841" data-name="Trazado 63841" d="M230.445,43.433a274.65,274.65,0,0,0,8.257-42.2l-43.56-19.609q.328-6.192.338-12.467a232.738,232.738,0,0,0-2.519-34.148l41.53-23.632a273.728,273.728,0,0,0-12.229-41.217l-47.689,2.881A230.633,230.633,0,0,0,150.919-167.2L176.7-207.4a277.539,277.539,0,0,0-30.02-30.814l-40.869,24.7a231.025,231.025,0,0,0-39.6-24.705l4.143-47.6a273.782,273.782,0,0,0-40.876-13.32L4.756-258.26a232.286,232.286,0,0,0-40.186-3.493c-2.128,0-4.247.034-6.36.091L-60.236-305.72a275.3,275.3,0,0,0-42.409,7.137l-2.887,47.677a229.659,229.659,0,0,0-42.82,18.619l-36.806-30.437a277,277,0,0,0-34.185,26.106l19.6,43.557a231.922,231.922,0,0,0-29.277,36.328l-46.759-9.851a274.665,274.665,0,0,0-18.186,38.958L-256.36-98.16a229.867,229.867,0,0,0-8.975,45.809l-45.951,13c-.086,2.827-.143,5.661-.143,8.509a278.681,278.681,0,0,0,2.138,34.457l46.978,8.612a229.108,229.108,0,0,0,13.281,44.762l-34.659,32.876a275.86,275.86,0,0,0,21.8,37.068l45.612-14.21a232.273,232.273,0,0,0,32.553,33.417l-15.413,45.223a276.07,276.07,0,0,0,36.484,22.767l33.775-33.771a229.179,229.179,0,0,0,44.395,14.469l7.367,47.2a278.179,278.179,0,0,0,41.691,3.133c.4,0,.8-.014,1.206-.015l14.212-45.6a230.287,230.287,0,0,0,46.025-7.756l28.465,38.379A274.4,274.4,0,0,0,93.9,213.018l-8.61-47a231.727,231.727,0,0,0,37.087-28.315l43.026,20.747A277.21,277.21,0,0,0,192.4,124.96L162.951,87.367A229.79,229.79,0,0,0,182.7,45.058ZM-35.43,82.726A113.569,113.569,0,0,1-149-30.843,113.568,113.568,0,0,1-35.43-144.412,113.569,113.569,0,0,1,78.139-30.843,113.57,113.57,0,0,1-35.43,82.726Z" fill="#9ec8ff" opacity="0.5"/>
          <g id="Grupo_47071" data-name="Grupo 47071">
            <path id="Trazado_63842" data-name="Trazado 63842" d="M-196.264,92.913a2.961,2.961,0,0,1-2.382-1.2A206.383,206.383,0,0,1-215.92,64.179a2.966,2.966,0,0,1,1.257-4,2.965,2.965,0,0,1,4,1.257,200.481,200.481,0,0,0,16.776,26.744,2.965,2.965,0,0,1-.611,4.148A2.95,2.95,0,0,1-196.264,92.913Z" fill="#fff"/>
          </g>
          <g id="Grupo_47072" data-name="Grupo 47072">
            <path id="Trazado_63843" data-name="Trazado 63843" d="M-60.094,173.067a3.023,3.023,0,0,1-.389-.025A205.178,205.178,0,0,1-158.5,132.46a2.964,2.964,0,0,1-.549-4.157,2.963,2.963,0,0,1,4.156-.549,199.25,199.25,0,0,0,95.18,39.408,2.967,2.967,0,0,1,2.555,3.325A2.967,2.967,0,0,1-60.094,173.067Z" fill="#fff"/>
          </g>
        </g>
        <g id="Grupo_47077" data-name="Grupo 47077" opacity="0.5">
          <path id="Trazado_63844" data-name="Trazado 63844" d="M220.3,382.121a148.391,148.391,0,0,0,.926-16.475c0-2.939-.1-5.856-.267-8.752l-27.222-8.808A119.659,119.659,0,0,0,184.1,315.47l18.05-22.211a147,147,0,0,0-14.3-20.785l-27.226,8.884a120.934,120.934,0,0,0-26.951-20.717l1.548-28.6a145.589,145.589,0,0,0-23.766-8.423l-16.812,23.2a121.005,121.005,0,0,0-33.986-.89L45.1,221.864a145.743,145.743,0,0,0-24.181,7.146l.035,28.647A120.739,120.739,0,0,0-7.061,276.925L-33.77,266.619a147.262,147.262,0,0,0-15.382,20L-32.3,309.757A119.655,119.655,0,0,0-43.66,341.815l-27.646,7.357a148.118,148.118,0,0,0-.926,16.474c0,2.939.1,5.856.267,8.752l27.222,8.808A119.658,119.658,0,0,0-35.1,415.822l-18.05,22.211a146.994,146.994,0,0,0,14.3,20.785l27.226-8.883a120.96,120.96,0,0,0,26.951,20.716l-1.548,28.6a145.558,145.558,0,0,0,23.766,8.423l16.811-23.2a121.073,121.073,0,0,0,33.987.891L103.9,509.428a145.65,145.65,0,0,0,24.181-7.146l-.035-28.647a120.74,120.74,0,0,0,28.011-19.268l26.709,10.306a147.264,147.264,0,0,0,15.382-20l-16.856-23.139a119.653,119.653,0,0,0,11.363-32.058ZM74.5,423.2a57.55,57.55,0,1,1,57.551-57.551A57.551,57.551,0,0,1,74.5,423.2Z" fill="#9ec8ff" opacity="0.5"/>
          <g id="Grupo_47074" data-name="Grupo 47074">
            <path id="Trazado_63845" data-name="Trazado 63845" d="M152.991,432.1a2.965,2.965,0,0,1-2.278-4.861,96.549,96.549,0,0,0,17.011-92.994,2.965,2.965,0,1,1,5.607-1.93,102.48,102.48,0,0,1-18.058,98.716A2.961,2.961,0,0,1,152.991,432.1Z" fill="#fff"/>
          </g>
          <g id="Grupo_47075" data-name="Grupo 47075">
            <path id="Trazado_63846" data-name="Trazado 63846" d="M144.66,296.263a2.956,2.956,0,0,1-2.032-.806,95.823,95.823,0,0,0-33.182-20.445,2.965,2.965,0,0,1,2.022-5.575,101.75,101.75,0,0,1,35.225,21.7,2.965,2.965,0,0,1-2.033,5.124Z" fill="#fff"/>
          </g>
          <g id="Grupo_47076" data-name="Grupo 47076">
            <path id="Trazado_63847" data-name="Trazado 63847" d="M52.175,272.277a2.965,2.965,0,0,1-.724-5.84,102.687,102.687,0,0,1,25.118-3.107,2.965,2.965,0,0,1,0,5.93A96.8,96.8,0,0,0,52.9,272.186,2.952,2.952,0,0,1,52.175,272.277Z" fill="#fff"/>
          </g>
        </g>
      </g>
    </g>
  </g>
</svg>
